<svg width="17" height="17" viewBox="0 0 17 17" fill="none" xmlns="http://www.w3.org/2000/svg">
<path d="M1.89218 12.378L1.89233 12.3778C2.10095 12.0379 2.37006 11.7874 2.70697 11.6122C3.64764 11.1423 4.59907 10.7917 5.56178 10.5582C6.52613 10.3249 7.50513 10.2083 8.50004 10.2083C9.49495 10.2083 10.474 10.3249 11.4383 10.5582C12.401 10.7917 13.3524 11.1422 14.2931 11.6122C14.63 11.7874 14.8991 12.0379 15.1078 12.3778L15.1079 12.378C15.314 12.7135 15.4167 13.0766 15.4167 13.4833V14.25C15.4167 14.5766 15.3093 14.8378 15.0738 15.0738C14.8378 15.3093 14.5766 15.4167 14.25 15.4167H2.75004C2.42326 15.4167 2.16257 15.3092 1.9272 15.0738C1.69093 14.8375 1.58337 14.5764 1.58337 14.25V13.4833C1.58337 13.0766 1.68609 12.7135 1.89218 12.378ZM8.50004 7.75001C7.64637 7.75001 6.93424 7.4548 6.32308 6.84364C5.71192 6.23247 5.41671 5.52035 5.41671 4.66668C5.41671 3.813 5.71192 3.10088 6.32308 2.48972C6.93424 1.87855 7.64637 1.58334 8.50004 1.58334C9.35371 1.58334 10.0658 1.87855 10.677 2.48972C11.2882 3.10088 11.5834 3.813 11.5834 4.66668C11.5834 5.52035 11.2882 6.23247 10.677 6.84364C10.0658 7.4548 9.35371 7.75001 8.50004 7.75001Z" stroke="#1A1E2E" stroke-width="1.5"/>
</svg>
